<svg version="1.0" xmlns="http://www.w3.org/2000/svg"
 width="171.000000pt" height="267.000000pt" viewBox="0 0 171.000000 267.000000"
 preserveAspectRatio="xMidYMid meet">
    <g transform="translate(0.000000,267.000000) scale(0.100000,-0.100000)"
fill="#14A34A" stroke="none">
<path d="M740 2469 c-193 -17 -436 -196 -537 -393 -57 -113 -76 -200 -76 -356
1 -113 5 -151 27 -234 41 -157 133 -303 168 -268 10 10 4 29 -29 90 -146 274
-147 544 -2 793 75 130 248 261 403 306 137 40 178 40 292 3 156 -52 242 -103
338 -204 78 -82 152 -214 177 -316 18 -73 18 -280 0 -349 -20 -77 -58 -168
-94 -225 -22 -35 -28 -52 -21 -63 17 -27 28 -19 80 59 211 313 130 778 -174
1011 -163 125 -325 167 -552 146z"/>
<path d="M817 2328 c-14 -18 -39 -61 -57 -95 -29 -55 -33 -73 -38 -172 -5
-104 -3 -115 24 -186 16 -42 40 -88 54 -103 l25 -27 -7 -205 c-4 -113 -8 -212
-9 -220 -1 -8 4 -49 10 -90 6 -42 11 -245 11 -465 1 -214 4 -383 8 -373 8 17
7 18 126 -145 57 -77 70 -86 90 -55 7 12 -7 42 -67 133 -42 64 -78 131 -81
148 -11 76 -25 377 -26 554 -1 185 0 193 25 244 14 29 25 56 25 61 0 16 98
165 159 243 35 44 68 90 74 102 13 29 27 30 27 2 0 -11 -54 -92 -120 -180 -66
-87 -120 -160 -120 -162 0 -2 24 0 53 3 111 12 227 112 278 239 24 60 40 244
22 262 -13 13 -144 -33 -204 -71 -65 -43 -126 -111 -157 -178 -23 -48 -27 -71
-28 -149 0 -86 -14 -143 -35 -143 -4 0 -9 102 -11 228 l-3 227 37 35 c20 19
52 64 70 100 29 57 33 74 32 140 0 60 -6 91 -33 158 -35 87 -86 165 -113 170
-9 2 -27 -12 -41 -30z m89 -79 c13 -24 24 -52 24 -62 0 -10 4 -16 8 -13 11 7
33 -84 36 -149 3 -56 -5 -80 -49 -146 l-30 -46 -2 106 c-2 126 -10 191 -24
191 -6 0 -8 -12 -5 -27 5 -24 10 -267 7 -312 -1 -12 -4 -12 -13 -3 -9 9 -14
67 -17 185 -3 127 -6 164 -13 142 -12 -37 -17 -265 -6 -271 4 -3 8 -14 8 -24
0 -13 -5 -17 -15 -14 -8 4 -15 11 -15 17 0 5 -12 34 -26 64 -23 49 -25 64 -21
146 2 51 8 106 12 122 10 44 29 85 37 85 5 0 8 5 8 10 0 6 7 22 16 35 22 33
50 20 80 -36z m367 -534 c-1 -49 -6 -91 -11 -94 -5 -3 -15 -24 -22 -46 -25
-78 -103 -161 -170 -181 -22 -7 -40 -9 -40 -5 0 9 49 80 70 101 10 10 21 15
25 12 3 -4 3 1 -1 11 -3 10 -1 17 5 17 6 0 11 4 11 10 0 5 16 31 36 56 38 51
42 89 11 108 -15 9 -25 3 -65 -41 -26 -28 -65 -77 -87 -108 -51 -71 -84 -109
-90 -103 -8 8 17 128 26 128 5 0 9 4 9 10 0 15 47 80 54 73 3 -4 6 1 6 10 0 8
8 18 18 21 10 4 28 20 40 36 13 17 30 30 38 30 8 0 25 6 37 12 33 19 81 36 92
33 6 -1 9 -38 8 -90z"/>
<path d="M465 2100 c-10 -16 5 -52 38 -89 18 -22 27 -27 23 -15 -8 26 10 55
23 35 6 -9 11 -10 15 -2 11 17 -22 59 -56 70 -38 13 -35 13 -43 1z"/>
<path d="M1152 2092 c-26 -13 -32 -21 -30 -41 4 -32 30 -38 63 -17 28 18 31
34 13 58 -12 15 -16 15 -46 0z"/>
<path d="M380 2005 c0 -28 25 -44 42 -27 9 9 7 17 -7 32 -24 27 -35 25 -35 -5z"/>
<path d="M1280 2015 c-21 -25 -4 -45 37 -44 33 0 35 1 16 9 -13 5 -23 16 -23
24 0 22 -16 28 -30 11z"/>
<path d="M385 1830 c-16 -25 -16 -130 0 -189 22 -85 43 -125 104 -192 59 -66
122 -97 221 -108 l68 -7 6 81 c8 92 -1 125 -51 202 -61 93 -136 146 -280 199
-35 12 -65 18 -68 14z m129 -75 c25 -14 51 -25 59 -25 8 0 42 -29 76 -64 78
-82 134 -201 103 -220 -8 -5 -50 41 -141 157 -49 63 -82 88 -114 87 -7 0 -5
-5 5 -10 14 -9 233 -275 252 -307 4 -8 1 -13 -8 -13 -9 0 -40 30 -70 68 -155
192 -196 245 -196 255 0 8 -3 8 -10 1 -14 -14 5 -58 41 -99 50 -56 99 -120
111 -145 7 -14 21 -31 31 -38 41 -31 -18 -33 -70 -3 -17 10 -17 10 2 11 16 0
17 2 6 9 -8 5 -21 7 -29 3 -9 -3 -13 -1 -10 4 7 10 -17 36 -25 28 -3 -3 -11 5
-18 17 -6 13 -20 32 -30 42 -48 52 -88 204 -70 265 4 11 69 -3 105 -23z"/>
<path d="M1380 1666 c0 -16 27 -29 41 -20 19 11 9 34 -16 34 -15 0 -25 -6 -25
-14z"/>
<path d="M290 1541 c0 -21 13 -41 26 -41 17 0 17 5 4 31 -11 20 -30 26 -30 10z"/>
<path d="M1346 1522 c-13 -12 -5 -50 11 -56 18 -7 33 9 33 35 0 16 -33 32 -44
21z"/>
<path d="M340 1460 c0 -16 36 -80 46 -80 7 0 -6 43 -16 50 -4 3 -12 14 -18 25
-8 14 -11 16 -12 5z"/>
<path d="M1246 1378 c-7 -30 5 -41 38 -32 28 7 33 23 14 42 -19 19 -45 14 -52
-10z"/>
<path d="M413 1376 c-9 -11 -8 -18 7 -31 18 -16 20 -16 26 -1 7 18 -1 46 -13
46 -4 -1 -13 -7 -20 -14z"/>
<path d="M1285 1190 c-11 -5 -51 -18 -89 -29 -121 -38 -223 -128 -250 -223
-22 -75 -16 -244 7 -185 3 7 50 68 106 136 56 67 106 131 111 142 12 21 40 26
40 8 0 -14 -88 -123 -177 -219 l-65 -70 44 0 c113 0 213 72 275 197 34 69 38
84 38 154 0 84 -8 101 -40 89z m8 -67 c7 -37 -10 -123 -28 -143 -8 -9 -15 -22
-15 -29 0 -34 -72 -111 -131 -142 -47 -24 -60 -24 -52 -1 10 27 45 62 56 55 6
-3 7 -2 4 4 -3 5 13 34 37 64 45 57 66 91 66 107 0 16 -46 32 -59 19 -6 -6
-11 -7 -11 -3 0 5 -17 -13 -37 -40 -21 -27 -50 -62 -65 -79 -15 -16 -28 -36
-28 -43 0 -7 -4 -11 -8 -8 -5 3 -16 -8 -26 -25 -9 -16 -21 -29 -26 -29 -14 0
-4 93 13 127 24 45 141 149 184 163 21 7 41 15 45 19 5 4 23 8 42 9 30 2 34
-1 39 -25z"/>
<path d="M394 1134 c-29 -194 136 -393 304 -368 l44 6 -35 29 c-42 34 -197
225 -197 242 0 11 51 -39 209 -206 35 -38 66 -66 68 -63 3 3 6 33 6 68 1 152
-114 272 -308 323 -32 8 -65 15 -71 15 -7 0 -16 -20 -20 -46z m147 -19 c82
-32 173 -110 200 -173 20 -45 25 -87 11 -96 -10 -6 -108 111 -104 125 1 6 -2
8 -7 5 -5 -4 -31 14 -56 39 -28 26 -57 45 -70 45 -22 0 -23 -2 -12 -37 6 -21
19 -45 29 -54 10 -9 18 -20 18 -25 0 -9 16 -29 81 -102 16 -19 29 -38 29 -42
0 -12 -72 9 -91 26 -8 8 -19 14 -24 14 -12 0 -74 71 -81 93 -3 9 -9 17 -13 17
-13 0 -31 82 -31 137 0 46 2 49 27 51 15 1 57 -9 94 -23z"/>
<path d="M534 421 c-101 -46 -133 -166 -64 -245 39 -44 79 -60 135 -53 74 8
165 84 165 137 0 25 -87 139 -123 160 -40 25 -61 25 -113 1z m98 -62 c61 -24
68 -32 68 -77 0 -83 -111 -123 -180 -65 -29 24 -32 31 -27 66 5 40 49 97 74
97 7 0 36 -9 65 -21z m93 -129 c-9 -18 -19 -29 -22 -27 -3 3 2 16 11 29 9 12
17 34 17 48 2 22 2 23 6 3 2 -12 -3 -36 -12 -53z"/>
</g>
</svg>
