<svg version="1.0" xmlns="http://www.w3.org/2000/svg"
 width="300.000000pt" height="199.000000pt" viewBox="0 0 300.000000 199.000000"
 preserveAspectRatio="xMidYMid meet">
<g transform="translate(0.000000,199.000000) scale(0.100000,-0.100000)"
fill="#000000" stroke="none">
<path d="M1776 1771 c-3 -4 0 -31 8 -60 14 -54 6 -69 -13 -23 -6 15 -22 41
-36 57 -23 29 -24 29 -25 7 0 -12 12 -41 26 -63 14 -23 27 -48 29 -58 2 -9 6
-23 9 -31 5 -12 0 -16 -21 -14 -42 2 -45 3 -38 14 7 11 -38 24 -57 17 -9 -3
-6 -7 7 -13 11 -4 26 -16 33 -26 14 -19 67 -25 77 -8 14 23 34 6 73 -60 23
-38 42 -73 42 -77 0 -20 56 -63 82 -63 23 0 28 -4 28 -24 0 -13 3 -38 6 -55
11 -55 -20 -37 -135 78 -79 80 -104 111 -92 115 9 2 3 4 -14 4 -16 0 -61 12
-98 26 -37 14 -77 26 -88 26 -11 0 -17 5 -14 10 7 11 -18 14 -28 3 -4 -4 -31
-6 -60 -4 -105 5 -245 -43 -322 -110 -19 -17 -35 -29 -35 -26 0 3 7 33 15 66
28 107 -4 169 -123 241 l-67 40 -6 -28 c-4 -15 -7 -65 -8 -112 -1 -69 3 -91
19 -118 30 -49 130 -85 130 -47 0 26 -30 64 -46 58 -18 -7 -64 5 -64 16 0 5
18 7 40 4 22 -3 40 -1 40 4 0 17 -24 33 -51 33 -15 0 -32 7 -39 15 -15 18 -14
18 28 6 17 -5 32 -7 32 -5 0 3 -12 25 -26 50 -32 55 -27 82 6 28 22 -35 24
-37 28 -16 2 12 8 22 13 22 11 0 11 -3 -1 -35 -7 -18 -7 -33 1 -47 11 -20 12
-20 26 13 9 19 17 29 20 22 2 -6 -3 -23 -12 -36 -14 -22 -14 -28 9 -78 30 -69
26 -93 -30 -180 -57 -88 -100 -199 -107 -277 -5 -60 -4 -63 12 -48 10 9 19 16
22 16 8 0 4 -125 -4 -137 -5 -8 -3 -13 6 -13 9 0 29 -25 46 -55 36 -64 94
-131 134 -156 l29 -17 -40 -7 c-52 -8 -107 2 -128 26 -14 15 -15 30 -9 86 4
44 3 65 -3 58 -15 -16 -30 -121 -19 -140 16 -29 -64 19 -104 62 -61 66 -89
117 -105 193 -17 81 -12 141 17 208 20 46 39 57 31 17 -6 -36 25 -46 50 -15
36 44 3 83 -50 61 -46 -19 -75 -86 -76 -175 -1 -39 3 -84 7 -101 l9 -30 -24
21 c-13 12 -74 39 -137 59 -111 37 -114 38 -143 20 -16 -9 -32 -14 -36 -10 -4
3 1 11 11 16 29 17 19 26 -43 38 -33 7 -60 16 -60 20 0 5 19 5 43 0 67 -13 73
-12 54 9 -10 10 -17 23 -17 28 0 5 13 -5 28 -23 26 -30 72 -53 72 -36 0 4 -9
23 -21 42 -11 18 -18 35 -16 38 9 8 46 -40 52 -67 4 -20 15 -30 40 -38 19 -5
35 -8 35 -6 0 2 -11 29 -25 60 -14 31 -25 60 -25 65 0 16 21 9 26 -8 28 -84
51 -126 77 -140 16 -8 31 -12 35 -9 3 3 5 26 5 50 0 91 -66 151 -157 143 -28
-3 -54 -11 -60 -19 -6 -9 -27 -19 -46 -23 -19 -4 -61 -19 -93 -33 l-58 -25 52
-53 c28 -28 69 -60 90 -70 36 -16 41 -16 57 -1 9 8 30 20 45 26 24 9 27 9 25
-7 -2 -14 4 -16 34 -14 30 2 38 -1 43 -19 5 -16 2 -26 -11 -36 -23 -17 -34
-17 -34 2 0 22 -12 18 -37 -12 -25 -32 -33 -10 -8 23 16 21 20 38 6 30 -5 -4
-11 -1 -13 6 -4 11 -88 -68 -88 -83 0 -22 138 -25 180 -4 16 9 37 29 45 45 9
17 18 30 21 30 22 0 114 -109 114 -135 0 -2 -17 6 -37 17 -116 60 -237 -56
-157 -151 21 -26 33 -31 69 -31 36 0 48 5 70 32 21 25 25 38 21 62 -4 17 -12
36 -19 43 -10 11 -13 3 -12 -39 0 -46 -3 -54 -26 -66 -36 -21 -75 -9 -95 29
-32 64 29 127 107 110 49 -11 78 -28 132 -78 26 -24 73 -56 105 -71 50 -24 71
-27 162 -28 87 -1 114 -6 155 -25 69 -32 233 -39 326 -14 35 10 90 21 122 26
67 10 102 26 174 80 52 39 53 39 72 20 55 -55 130 -70 235 -46 42 9 76 18 76
21 0 20 -46 88 -77 113 -47 38 -72 39 -106 3 l-27 -29 62 -17 c62 -17 114 -43
105 -52 -2 -3 -40 7 -83 22 -47 15 -104 27 -141 28 -35 0 -63 6 -63 11 2 42
63 89 160 124 36 13 83 32 106 42 22 10 70 23 106 29 66 12 66 12 108 -19 51
-37 69 -38 127 -10 37 18 123 102 123 120 0 13 -105 39 -157 39 -49 0 -59 -4
-89 -34 -19 -19 -34 -39 -34 -45 0 -18 52 -1 83 27 26 25 39 19 15 -7 -11 -11
-6 -12 27 -7 95 17 120 18 110 9 -5 -6 -39 -16 -75 -23 -58 -12 -62 -14 -37
-23 15 -5 27 -13 27 -18 0 -13 -6 -11 -42 7 -59 30 -269 -2 -390 -60 -29 -14
-53 -24 -55 -22 -1 1 9 19 23 39 38 56 71 127 78 169 4 20 13 39 22 42 8 3 21
20 28 38 16 37 8 67 -28 113 l-24 30 -22 -20 c-54 -49 -63 -108 -25 -153 28
-33 30 -53 14 -100 -12 -36 -29 -33 -29 4 0 23 -24 43 -37 31 -3 -3 2 -28 12
-55 16 -44 16 -50 2 -79 -20 -38 -66 -93 -77 -93 -5 0 -3 17 4 38 9 24 14 95
14 202 1 98 6 166 12 168 18 6 78 97 88 134 14 50 -1 63 -39 36 -41 -31 -49
-13 -10 22 32 30 37 55 10 55 -8 0 -25 -22 -39 -50 -28 -56 -43 -72 -48 -49
-3 12 -7 13 -18 3 -12 -10 -21 -6 -49 21 -40 39 -103 137 -115 182 -8 24 -4
41 15 83 29 60 31 72 10 55 -8 -7 -15 -19 -15 -27 0 -24 -17 -5 -23 27 -6 29
-20 39 -31 21z m-260 -266 c8 -20 24 -19 24 1 0 10 6 14 18 10 9 -3 37 -10 62
-16 72 -19 135 -58 199 -124 68 -71 95 -121 116 -208 36 -155 5 -297 -93 -416
-79 -96 -167 -142 -310 -162 -147 -20 -291 27 -392 129 -67 68 -124 170 -118
211 2 16 1 27 -3 25 -4 -3 -10 20 -14 50 -5 47 -3 61 15 91 25 39 17 62 -9 26
-9 -12 -24 -33 -33 -45 -17 -22 -17 -22 -8 11 5 19 13 39 19 45 5 7 18 38 29
69 40 112 147 230 252 276 91 40 235 56 246 27z m583 -137 c-7 -13 -24 -38
-38 -57 -26 -34 -26 -34 -32 -10 -15 54 -11 69 20 69 17 0 33 5 36 10 13 21
25 9 14 -12z m-114 -130 c22 3 25 0 25 -30 l-1 -33 -15 28 c-21 38 -30 27 -10
-12 19 -37 20 -132 1 -181 -13 -34 -14 -32 -14 52 -1 55 -8 109 -21 150 -14
48 -15 58 -4 43 9 -13 24 -19 39 -17z m187 -55 l-10 -48 -1 60 c-1 43 2 56 10
48 8 -8 9 -25 1 -60z m-1518 -105 c17 -23 21 -58 9 -58 -5 0 -18 18 -31 40
-18 32 -19 40 -8 40 8 0 22 -10 30 -22z m1356 -132 c-16 -80 -93 -229 -133
-260 -37 -28 -126 -70 -133 -63 -3 3 11 15 31 27 58 36 129 133 186 256 30 64
55 111 57 105 2 -6 -2 -35 -8 -65z"/>
<path d="M1440 1445 c0 -2 5 -15 11 -29 9 -19 9 -29 0 -40 -9 -11 -9 -16 0
-22 28 -17 52 59 27 84 -12 12 -38 17 -38 7z"/>
<path d="M1532 1400 c9 -29 7 -34 -36 -80 -45 -48 -59 -91 -36 -105 6 -3 10
-1 10 5 0 27 32 77 60 93 37 23 48 59 26 92 -23 35 -37 32 -24 -5z"/>
<path d="M1374 1386 c-6 -16 22 -76 36 -76 18 0 20 20 3 54 -18 38 -30 45 -39
22z"/>
<path d="M1184 1319 c-3 -6 -2 -15 4 -21 13 -13 32 -2 32 18 0 16 -26 19 -36
3z"/>
<path d="M1735 1321 c-8 -15 3 -31 21 -31 9 0 14 7 12 17 -4 20 -24 28 -33 14z"/>
<path d="M1390 1233 c-56 -8 -130 -36 -130 -50 0 -38 173 -69 293 -53 70 10
137 32 137 44 0 3 -15 14 -34 25 -44 28 -156 41 -156 19 0 -26 -26 -41 -49
-28 -12 6 -21 17 -21 25 0 18 -9 22 -40 18z m24 -65 c-3 -5 -12 -3 -21 3 -10
9 -17 9 -21 2 -5 -7 -11 -7 -19 2 -10 11 -9 14 5 17 22 5 63 -12 56 -24z m171
12 c3 -5 5 -10 3 -10 -2 -1 -20 -3 -40 -6 -22 -3 -38 -1 -38 4 0 20 64 30 75
12z"/>
<path d="M1224 1111 c21 -161 94 -250 219 -267 140 -19 250 86 274 261 l6 49
-26 -17 c-92 -60 -345 -61 -433 -1 -19 13 -38 24 -41 24 -3 0 -3 -22 1 -49z
m104 -35 c7 -4 37 -9 66 -10 29 -2 58 -6 64 -10 7 -4 21 -4 32 -1 12 4 20 2
20 -6 0 -8 4 -8 13 -1 15 13 134 35 147 27 10 -6 -4 -53 -31 -102 -10 -17 -15
-35 -11 -40 4 -4 3 -5 -2 -1 -5 4 -23 -6 -39 -24 -19 -19 -28 -24 -23 -13 6
18 6 18 -12 2 -10 -9 -32 -17 -49 -17 -17 0 -34 -6 -36 -12 -3 -8 -6 -5 -6 5
-1 10 -6 15 -11 12 -6 -4 -17 -1 -25 5 -11 9 -15 9 -15 1 0 -6 -5 -11 -11 -11
-5 0 -7 5 -4 10 3 6 -1 10 -10 10 -9 0 -23 6 -31 14 -7 8 -17 16 -21 18 -10 4
-73 96 -73 106 0 4 5 0 10 -8 7 -11 10 -5 10 22 0 39 14 46 48 24z"/>
<path d="M1750 1105 c0 -18 5 -25 19 -25 56 0 44 -65 -13 -76 -34 -6 -52 -26
-40 -46 8 -12 70 -1 99 18 25 16 45 55 45 85 0 31 -44 69 -80 69 -25 0 -30 -4
-30 -25z"/>
<path d="M1098 1053 c-26 -7 -22 -20 8 -27 29 -8 50 5 40 23 -7 11 -18 12 -48
4z"/>
<path d="M1183 920 c-65 -39 -33 -109 70 -158 179 -84 498 -30 541 91 13 37
-15 67 -62 67 -27 0 -43 -9 -74 -39 -102 -102 -294 -94 -390 18 -19 22 -39 41
-44 41 -5 0 -24 -9 -41 -20z m77 -57 c0 -7 7 -13 16 -13 8 0 13 -4 9 -10 -8
-14 96 -60 136 -60 19 0 41 -6 48 -12 8 -7 11 -8 8 -3 -3 6 13 11 38 12 53 2
185 72 185 99 0 6 13 9 30 6 17 -2 30 -7 30 -11 0 -35 -106 -101 -162 -101
-16 0 -28 -4 -28 -8 0 -11 -179 -12 -186 0 -3 5 -12 4 -20 -3 -8 -6 -14 -7
-14 -2 0 5 -20 14 -44 21 -46 14 -116 65 -116 86 0 6 5 17 11 23 13 13 59 -6
59 -24z"/>
<path d="M1455 661 c-8 -15 3 -31 21 -31 9 0 14 7 12 17 -4 20 -24 28 -33 14z"/>
<path d="M1412 1724 c-18 -12 -20 -19 -12 -35 7 -13 7 -19 0 -19 -5 0 -10 -7
-10 -15 0 -8 7 -15 15 -15 8 0 15 9 15 21 0 15 5 19 18 15 12 -4 26 1 37 14
14 16 15 22 5 35 -16 19 -40 19 -68 -1z"/>
<path d="M1248 1694 c-44 -19 -66 -61 -48 -94 9 -17 9 -29 1 -48 -14 -30 -7
-42 9 -13 6 12 26 28 45 36 39 16 58 51 53 99 -4 36 -13 39 -60 20z m11 -68
c-11 -24 -29 -36 -29 -18 0 12 31 54 36 49 3 -2 -1 -16 -7 -31z"/>
<path d="M1660 1697 c0 -15 12 -31 58 -71 29 -27 32 -28 32 -10 0 12 -16 37
-37 57 -38 39 -53 45 -53 24z"/>
<path d="M1856 1679 c-14 -17 -26 -35 -26 -40 0 -19 20 -7 50 31 38 49 16 57
-24 9z"/>
<path d="M2121 1696 c-13 -7 -30 -24 -37 -37 -14 -26 -18 -87 -6 -105 12 -18
97 -64 119 -64 50 0 101 78 87 134 -3 15 -20 40 -36 56 -33 33 -84 40 -127 16z
m89 -23 c54 -31 66 -98 25 -138 -24 -25 -65 -34 -65 -15 0 5 -11 12 -25 16
-60 15 -61 120 -2 144 31 12 36 12 67 -7z"/>
<path d="M2152 1628 c-14 -14 -16 -38 -3 -38 5 0 11 5 13 12 2 6 10 8 17 4 7
-5 10 -15 7 -23 -4 -9 -1 -13 6 -11 18 6 22 36 8 53 -15 18 -32 19 -48 3z"/>
<path d="M1520 1642 c0 -25 22 -43 39 -33 20 13 9 46 -17 49 -16 3 -22 -2 -22
-16z"/>
<path d="M1950 1640 c-9 -16 -8 -21 4 -26 26 -10 51 0 51 21 0 28 -40 32 -55
5z"/>
<path d="M1447 1636 c-3 -8 1 -22 8 -33 13 -17 15 -17 31 -1 9 9 14 24 11 32
-8 20 -43 21 -50 2z"/>
<path d="M1849 1620 c-19 -15 -20 -19 -8 -20 9 0 27 9 40 20 19 15 20 19 8 20
-9 0 -27 -9 -40 -20z"/>
<path d="M1960 1520 c0 -12 8 -35 18 -53 l17 -32 3 39 c2 21 1 44 -2 52 -8 22
-36 17 -36 -6z"/>
<path d="M2027 1533 c-10 -10 -8 -73 2 -73 11 0 33 59 25 71 -6 11 -18 12 -27
2z"/>
<path d="M585 1513 c4 -10 11 -29 15 -43 47 -156 167 -240 297 -209 45 11 80
29 56 29 -6 0 -41 21 -79 46 -68 46 -70 46 -112 35 -51 -13 -75 -14 -68 -2 3
4 25 11 48 15 38 6 41 8 23 18 -18 10 -124 77 -134 85 -2 1 -2 6 2 9 3 4 22
-4 42 -16 31 -19 39 -20 46 -9 6 10 9 10 9 2 0 -15 36 -53 50 -53 5 0 7 13 4
30 -4 19 -2 30 5 30 6 0 11 -12 11 -26 0 -29 16 -64 30 -64 6 0 10 12 10 26 0
14 4 23 10 19 6 -3 10 -18 10 -33 0 -22 11 -35 56 -66 31 -20 58 -35 60 -33 2
2 -3 27 -12 56 -10 34 -29 67 -57 95 -53 56 -117 76 -240 76 -81 0 -88 -2 -82
-17z m236 -177 c-8 -10 -9 -16 -1 -21 14 -9 13 -36 -2 -32 -7 1 -16 6 -19 10
-5 7 -26 14 -51 16 -21 2 -4 21 25 30 50 14 62 14 48 -3z"/>
<path d="M1915 1501 c-8 -14 11 -48 35 -61 29 -15 32 -12 16 18 -19 37 -42 56
-51 43z"/>
<path d="M2336 1451 c-36 -5 -55 -15 -72 -35 -25 -29 -32 -84 -13 -103 8 -8 6
-19 -7 -39 l-18 -29 25 23 c15 13 38 22 58 22 46 0 66 14 84 57 18 46 20 114
4 112 -7 -1 -34 -5 -61 -8z m-1 -71 c-22 -23 -25 -30 -12 -30 8 0 19 5 22 10
12 19 26 11 16 -9 -11 -20 -81 -35 -81 -17 0 18 51 76 67 76 13 0 10 -7 -12
-30z"/>
<path d="M542 1321 c-20 -12 -10 -46 12 -46 27 0 46 33 26 45 -18 12 -21 12
-38 1z"/>
<path d="M2423 1314 c-8 -22 11 -37 36 -29 31 10 28 45 -4 45 -14 0 -28 -7
-32 -16z"/>
<path d="M682 1218 c-29 -29 7 -86 46 -74 27 9 33 28 18 57 -13 27 -45 36 -64
17z"/>
<path d="M2393 1190 c-83 -19 -134 -81 -149 -180 l-7 -45 23 20 c12 11 39 45
60 75 43 62 87 107 96 97 4 -4 -2 -14 -14 -24 -26 -23 -113 -145 -107 -151 10
-10 97 43 120 72 24 32 55 106 55 132 0 15 -26 17 -77 4z"/>
<path d="M836 1024 c-21 -20 -20 -44 0 -59 13 -9 14 -16 5 -33 -14 -27 -15
-122 0 -122 7 0 9 12 5 33 -7 40 7 101 28 122 9 9 16 23 16 30 0 12 -26 45
-35 45 -2 0 -11 -7 -19 -16z"/>
<path d="M2280 926 c0 -2 24 -18 53 -34 46 -27 121 -92 104 -92 -3 0 -34 20
-69 44 -60 41 -120 76 -133 76 -10 0 25 -59 58 -96 17 -20 46 -43 64 -50 31
-13 143 -20 143 -9 0 25 -66 129 -93 145 -28 17 -127 29 -127 16z"/>
<path d="M2054 824 c1 -16 -10 -25 -49 -40 -17 -7 -15 -9 12 -12 24 -2 42 4
68 24 44 33 44 44 1 44 -25 0 -33 -4 -32 -16z"/>
<path d="M914 815 c-9 -23 3 -45 25 -45 23 0 35 28 20 46 -15 18 -38 18 -45
-1z"/>
<path d="M666 734 c-18 -18 -17 -35 2 -42 7 -2 12 3 12 12 0 9 5 16 10 16 6 0
10 -7 10 -15 0 -8 5 -15 11 -15 6 0 9 12 7 27 -4 33 -29 41 -52 17z"/>
<path d="M474 705 c-4 -9 -2 -21 4 -27 15 -15 44 -1 40 19 -4 23 -36 29 -44 8z"/>
<path d="M1020 712 c0 -14 24 -32 42 -32 16 0 17 3 8 20 -10 19 -50 29 -50 12z"/>
<path d="M2410 695 c-15 -18 -5 -35 20 -35 25 0 33 28 11 40 -14 7 -22 6 -31
-5z"/>
<path d="M826 644 c-12 -12 -13 -20 -6 -35 12 -22 30 -25 48 -7 18 18 15 36
-7 48 -15 7 -23 6 -35 -6z"/>
<path d="M2280 563 c-29 -11 -50 -36 -50 -60 0 -14 -6 -23 -15 -23 -8 0 -15
-4 -15 -10 0 -5 7 -10 15 -10 12 0 15 -16 15 -80 0 -68 -3 -83 -21 -101 -25
-25 -20 -33 19 -24 35 7 79 50 63 60 -6 3 -11 37 -11 76 0 67 1 69 24 69 14 0
28 5 31 10 4 6 -7 10 -24 10 -28 0 -31 3 -31 30 0 33 16 39 36 13 12 -17 14
-17 30 -1 12 11 15 21 9 27 -14 13 -57 21 -75 14z"/>
<path d="M428 548 c21 -10 22 -17 22 -112 0 -56 -4 -106 -8 -113 -4 -6 -20
-17 -36 -23 -23 -8 -27 -13 -17 -23 9 -9 19 -8 42 6 41 23 79 22 134 -5 40
-19 47 -20 60 -7 18 18 32 79 17 79 -5 0 -12 -7 -16 -15 -6 -16 -56 -19 -91
-6 -17 7 -20 18 -21 105 -1 74 2 99 13 103 32 13 7 23 -54 22 -56 0 -64 -2
-45 -11z"/>
<path d="M1040 551 c0 -5 7 -11 15 -15 12 -4 15 -26 15 -105 0 -56 -4 -103
-10 -106 -21 -13 -8 -25 28 -25 l38 0 -4 71 c-5 74 2 89 41 89 15 0 17 -10 17
-80 l0 -80 34 0 c34 0 61 20 38 28 -7 2 -12 26 -12 63 0 46 -5 64 -20 79 -22
22 -51 26 -81 10 -17 -10 -19 -7 -19 35 l0 45 -40 0 c-22 0 -40 -4 -40 -9z"/>
<path d="M1851 547 c-91 -47 -89 -197 4 -241 44 -21 96 -15 126 15 26 26 24
44 -3 25 -65 -46 -138 5 -138 95 0 40 5 55 25 74 37 38 85 28 85 -17 0 -21 23
-24 39 -4 14 17 5 43 -20 56 -25 14 -89 12 -118 -3z"/>
<path d="M1509 524 c-10 -13 -10 -17 2 -24 12 -8 12 -13 1 -31 -20 -31 6 -20
31 14 17 22 18 29 7 42 -16 19 -24 19 -41 -1z"/>
<path d="M304 475 c-7 -18 13 -45 33 -45 19 0 28 27 13 45 -16 19 -39 19 -46
0z"/>
<path d="M691 476 c-25 -14 -50 -51 -51 -74 0 -33 35 -85 67 -98 85 -36 172
72 115 142 -35 43 -86 55 -131 30z m72 -21 c22 -21 30 -67 18 -99 -23 -58 -68
-39 -78 31 -9 66 25 104 60 68z"/>
<path d="M930 483 c-34 -13 -60 -47 -60 -80 0 -40 23 -88 45 -97 32 -12 83 -6
106 13 28 23 20 38 -11 21 -49 -26 -101 25 -86 85 10 41 66 58 66 19 0 -19 29
-18 37 2 12 32 -49 55 -97 37z"/>
<path d="M1270 478 c0 -4 5 -10 11 -14 7 -4 9 -22 4 -49 -4 -29 -1 -55 9 -79
13 -31 19 -36 48 -36 19 0 39 5 46 12 9 9 15 8 26 -7 13 -18 14 -18 41 -1 25
16 26 20 11 28 -14 8 -16 20 -10 84 l7 74 -34 -6 c-41 -8 -43 -9 -33 -25 11
-19 4 -113 -9 -121 -31 -20 -42 -3 -47 71 l-5 74 -33 1 c-17 1 -32 -2 -32 -6z"/>
<path d="M1593 480 c-34 -14 -40 -56 -13 -85 12 -13 33 -26 47 -30 16 -4 23
-12 21 -23 -5 -25 -34 -26 -57 -3 -25 25 -27 25 -35 6 -16 -42 86 -63 124 -25
30 30 25 47 -25 82 -25 18 -45 38 -45 45 0 22 31 28 45 10 16 -23 35 -21 35 2
0 30 -49 40 -97 21z"/>
<path d="M2042 474 c-16 -14 -19 -23 -12 -34 9 -13 13 -12 28 8 19 25 46 22
56 -5 8 -20 -1 -33 -22 -33 -9 0 -32 -9 -49 -20 -36 -22 -42 -49 -17 -74 17
-18 69 -22 79 -6 4 6 13 5 25 -2 14 -9 25 -9 44 0 27 12 37 38 11 28 -12 -4
-15 5 -15 52 0 32 -6 66 -13 76 -19 26 -87 32 -115 10z m76 -111 c-3 -32 -44
-46 -54 -19 -8 21 13 46 38 46 15 0 19 -6 16 -27z"/>
<path d="M2394 480 c-57 -23 -71 -99 -28 -149 34 -41 98 -44 141 -6 21 19 24
24 11 25 -9 0 -20 -4 -23 -10 -9 -14 -58 -12 -77 3 -8 6 -18 20 -21 30 -5 14
0 17 28 17 55 0 85 16 85 44 0 42 -65 67 -116 46z m56 -25 c19 -23 4 -45 -30
-45 -34 0 -38 14 -13 42 20 22 27 22 43 3z"/>
<path d="M2606 463 c-4 -9 0 -23 7 -30 12 -12 17 -12 31 2 9 9 16 23 16 31 0
20 -46 18 -54 -3z"/>
<path d="M243 454 c-3 -9 6 -26 25 -45 36 -36 48 -20 19 28 -21 36 -34 41 -44
17z"/>
<path d="M2672 415 c-25 -18 -29 -35 -8 -35 17 0 39 26 34 40 -2 6 -12 4 -26
-5z"/>
<path d="M324 399 c-3 -6 -2 -15 4 -21 15 -15 46 -5 50 15 3 12 -3 17 -22 17
-14 0 -28 -5 -32 -11z"/>
<path d="M2575 400 c-4 -7 -3 -16 3 -22 14 -14 45 -2 40 15 -6 16 -34 21 -43
7z"/>
<path d="M220 382 c0 -11 10 -31 21 -46 17 -22 28 -27 58 -24 25 2 37 8 39 21
2 12 -3 17 -18 17 -12 0 -34 8 -48 18 -48 33 -52 34 -52 14z"/>
<path d="M2695 371 c-28 -20 -44 -26 -52 -19 -15 12 -33 2 -33 -17 0 -18 42
-29 75 -21 14 4 34 21 45 39 34 56 25 61 -35 18z"/>
<path d="M635 199 c4 -13 13 -37 20 -54 l13 -30 12 30 12 30 13 -30 13 -30 16
38 c10 22 15 46 13 55 -3 12 -7 9 -17 -13 l-12 -30 -12 28 -12 28 -14 -28 -13
-28 -6 24 c-4 14 -13 27 -20 29 -10 3 -11 -2 -6 -19z"/>
<path d="M780 170 c0 -27 5 -50 10 -50 6 0 10 9 10 20 0 11 7 20 15 20 8 0 15
-9 15 -20 0 -11 5 -20 10 -20 6 0 10 23 10 50 0 28 -4 50 -10 50 -5 0 -10 -9
-10 -20 0 -11 -7 -20 -15 -20 -8 0 -15 9 -15 20 0 11 -4 20 -10 20 -5 0 -10
-22 -10 -50z"/>
<path d="M882 171 c3 -42 5 -46 31 -49 15 -2 27 1 27 7 0 6 -9 11 -20 11 -27
0 -25 16 3 25 l22 8 -22 4 c-13 2 -23 9 -23 15 0 5 7 8 15 5 8 -4 17 -2 20 2
2 5 -9 11 -26 13 l-30 5 3 -46z"/>
<path d="M970 167 c1 -47 2 -50 15 -33 13 17 15 17 21 3 11 -30 21 -18 20 25
-1 37 -4 42 -28 49 -28 7 -28 7 -28 -44z"/>
<path d="M1060 168 c0 -47 1 -48 30 -48 17 0 30 5 30 10 0 6 -9 10 -20 10 -27
0 -25 18 3 23 22 4 22 4 -3 15 -17 7 -20 11 -8 11 30 1 29 19 -2 23 -30 5 -30
4 -30 -44z"/>
<path d="M1312 173 c-22 -47 -22 -67 0 -45 16 16 45 15 51 0 2 -7 8 -10 12 -6
8 8 -22 85 -35 93 -4 2 -16 -17 -28 -42z"/>
<path d="M1386 204 c-3 -8 1 -14 9 -14 10 0 15 -11 15 -35 0 -19 5 -35 10 -35
6 0 10 16 10 35 0 25 4 35 16 35 9 0 14 5 12 11 -6 17 -66 19 -72 3z"/>
<path d="M1488 214 c-13 -13 -9 -71 7 -84 30 -25 64 7 65 63 0 31 -19 18 -22
-15 -4 -48 -32 -44 -38 5 -3 22 -8 35 -12 31z"/>
<path d="M2322 208 c-17 -17 -15 -27 11 -49 l22 -20 -22 6 c-14 4 -23 2 -23
-5 0 -17 29 -23 45 -10 21 17 19 37 -5 45 -11 3 -20 11 -20 17 0 5 7 7 16 4
10 -4 14 -1 12 6 -6 17 -22 20 -36 6z"/>
<path d="M1190 165 c0 -25 5 -45 10 -45 6 0 10 12 10 27 l0 27 30 -29 30 -29
0 47 c0 26 -4 47 -10 47 -5 0 -10 -10 -10 -22 l0 -21 -23 21 c-13 12 -26 22
-30 22 -4 0 -7 -20 -7 -45z"/>
<path d="M1590 163 c1 -44 2 -46 15 -29 13 17 15 17 21 3 11 -30 21 -18 20 26
-1 38 -3 42 -28 45 -27 3 -28 2 -28 -45z"/>
<path d="M1680 165 c0 -43 1 -45 30 -45 17 0 30 5 30 10 0 6 -9 10 -20 10 -27
0 -25 18 3 23 22 4 22 4 -3 15 -24 10 -24 11 -2 11 34 1 26 21 -8 21 -29 0
-30 -2 -30 -45z"/>
<path d="M1813 170 c0 -22 4 -43 8 -46 5 -3 9 2 9 10 0 20 19 21 26 1 11 -28
20 -15 20 28 -1 40 -3 42 -32 45 -30 3 -31 2 -31 -38z"/>
<path d="M1910 165 c0 -43 1 -45 30 -45 17 0 30 5 30 10 0 6 -9 10 -20 10 -27
0 -25 18 3 23 22 4 22 4 -3 15 -24 10 -24 11 -2 11 34 1 26 21 -8 21 -29 0
-30 -2 -30 -45z"/>
<path d="M1994 198 c-4 -6 2 -19 14 -29 27 -22 28 -32 2 -24 -11 3 -20 2 -20
-4 0 -12 37 -24 50 -16 15 9 12 45 -5 51 -8 4 -15 10 -15 15 0 4 7 6 15 3 8
-4 15 -1 15 5 0 15 -47 14 -56 -1z"/>
<path d="M2080 165 c0 -25 5 -45 10 -45 6 0 10 20 10 45 0 25 -4 45 -10 45 -5
0 -10 -20 -10 -45z"/>
<path d="M2130 165 c0 -38 3 -45 19 -45 11 0 27 7 35 16 31 31 13 74 -31 74
-21 0 -23 -5 -23 -45z m45 0 c0 -10 -6 -20 -12 -22 -8 -3 -13 5 -13 22 0 17 5
25 13 23 6 -3 12 -13 12 -23z"/>
<path d="M2228 165 c4 -42 6 -45 33 -45 16 0 29 5 29 10 0 6 -11 10 -25 10
-14 0 -25 5 -25 10 0 6 9 10 20 10 28 0 25 20 -2 21 -21 1 -21 2 -3 6 37 9 40
23 4 23 l-34 0 3 -45z"/>
<path d="M521 176 c-9 -11 -9 -15 1 -18 21 -7 59 4 55 16 -6 17 -42 19 -56 2z"/>
<path d="M2417 184 c-15 -16 -5 -24 29 -24 24 0 34 4 32 13 -5 13 -50 22 -61
11z"/>
</g>
</svg>
